<svg width="494" height="91" viewBox="0 0 494 91" fill="none" xmlns="http://www.w3.org/2000/svg">
<path d="M163.336 32.5596C161.426 31.3728 159.465 30.3923 157.453 29.6183C155.492 28.8443 153.635 28.3025 151.88 27.9929C150.126 27.6317 148.526 27.4511 147.081 27.4511C144.656 27.4511 142.695 27.9155 141.199 28.8443C139.754 29.7731 139.031 31.1406 139.031 32.9466C139.031 34.5979 139.547 35.9395 140.579 36.9715C141.663 38.0036 143.056 38.855 144.759 39.5258C146.514 40.1966 148.423 40.8416 150.487 41.4608C152.551 42.0801 154.615 42.7767 156.679 43.5507C158.743 44.2731 160.627 45.2277 162.329 46.4146C164.084 47.6014 165.477 49.1237 166.509 50.9813C167.541 52.839 168.057 55.161 168.057 57.9475C168.057 61.3016 167.154 64.1655 165.348 66.5391C163.542 68.9128 161.065 70.7446 157.917 72.0347C154.821 73.3247 151.287 73.9697 147.313 73.9697C144.424 73.9697 141.586 73.6085 138.799 72.8861C136.064 72.1121 133.458 71.08 130.982 69.79C128.556 68.5 126.363 67.0035 124.402 65.3007L128.737 56.8639C130.595 58.5667 132.607 60.0373 134.774 61.2758C136.941 62.4626 139.109 63.3914 141.276 64.0623C143.495 64.6815 145.559 64.9911 147.468 64.9911C150.409 64.9911 152.68 64.4235 154.28 63.2882C155.931 62.153 156.756 60.5534 156.756 58.4893C156.756 56.7865 156.215 55.419 155.131 54.387C154.099 53.355 152.732 52.5035 151.029 51.8327C149.326 51.1103 147.417 50.4911 145.301 49.9751C143.237 49.4075 141.173 48.7624 139.109 48.04C137.045 47.266 135.135 46.3114 133.381 45.1761C131.678 43.9893 130.285 42.4929 129.201 40.6868C128.169 38.8808 127.653 36.5845 127.653 33.798C127.653 30.6504 128.505 27.9413 130.207 25.6708C131.91 23.3488 134.258 21.5685 137.251 20.3301C140.296 19.04 143.856 18.395 147.933 18.395C151.545 18.395 155.054 18.911 158.459 19.9431C161.917 20.9751 164.935 22.3425 167.515 24.0454L163.336 32.5596Z" fill="white"/>
<path d="M210.236 18.5498C214.312 18.5498 218.105 19.2464 221.614 20.6397C225.123 22.0329 228.167 23.9938 230.747 26.5222C233.379 29.0507 235.417 31.992 236.862 35.3461C238.359 38.6486 239.107 42.2607 239.107 46.1824C239.107 50.0525 238.359 53.6904 236.862 57.0961C235.417 60.5018 233.379 63.4688 230.747 65.9973C228.167 68.5258 225.123 70.5124 221.614 71.9573C218.105 73.3505 214.312 74.0471 210.236 74.0471C206.159 74.0471 202.367 73.3505 198.858 71.9573C195.4 70.5124 192.356 68.5258 189.724 65.9973C187.093 63.4688 185.029 60.5276 183.532 57.1735C182.087 53.7678 181.365 50.1041 181.365 46.1824C181.365 42.2607 182.087 38.6228 183.532 35.2687C185.029 31.9146 187.093 28.9991 189.724 26.5222C192.356 23.9938 195.4 22.0329 198.858 20.6397C202.367 19.2464 206.159 18.5498 210.236 18.5498ZM210.391 27.2963C207.862 27.2963 205.488 27.7865 203.27 28.7669C201.051 29.6957 199.09 31.0374 197.387 32.7918C195.684 34.4947 194.343 36.4813 193.362 38.7518C192.433 41.0222 191.969 43.4991 191.969 46.1824C191.969 48.8656 192.459 51.3683 193.44 53.6904C194.42 55.9608 195.762 57.9733 197.464 59.7277C199.167 61.4822 201.128 62.8496 203.347 63.83C205.566 64.8105 207.914 65.3007 210.391 65.3007C212.867 65.3007 215.19 64.8105 217.357 63.83C219.576 62.8496 221.511 61.4822 223.162 59.7277C224.813 57.9733 226.103 55.9608 227.032 53.6904C228.012 51.3683 228.503 48.8656 228.503 46.1824C228.503 43.4991 228.012 41.0222 227.032 38.7518C226.103 36.4813 224.813 34.4947 223.162 32.7918C221.511 31.0374 219.576 29.6957 217.357 28.7669C215.19 27.7865 212.867 27.2963 210.391 27.2963Z" fill="white"/>
<path d="M255.949 19.169H266.321V64.5267H289.696V73.3505H255.949V19.169Z" fill="white"/>
<path d="M305.565 19.169H317.407L335.365 54.6966L353.167 19.169H365.01V73.3505H355.489V33.6432L338.616 67.7776H331.959L315.008 33.6432V73.3505H305.565V19.169Z" fill="white"/>
<path d="M403.202 19.169H413.806L437.259 73.3505H426.191L408.156 29.6183L390.199 73.3505H379.362L403.202 19.169ZM391.824 53.0712H424.101V61.508H391.824V53.0712Z" fill="white"/>
<path d="M448.643 19.169H493.613V26.0578L461.724 64.6815H494V73.3505H447.714V66.4617L479.604 27.8381H448.643V19.169Z" fill="white"/>
<path fill-rule="evenodd" clip-rule="evenodd" d="M45.6241 90.8811C70.4935 90.8811 90.654 70.7205 90.654 45.8512C90.654 20.9819 70.4935 0.821289 45.6241 0.821289C20.7548 0.821289 0.594238 20.9819 0.594238 45.8512C0.594238 70.7205 20.7548 90.8811 45.6241 90.8811ZM48.156 13.8356C47.6113 12.9124 46.6196 12.3453 45.5477 12.3441C44.4758 12.3429 43.4828 12.9078 42.9361 13.8298L33.9631 28.9618L30.0834 22.2455C29.5425 21.3091 28.544 20.7316 27.4626 20.7299C26.3813 20.7281 25.3808 21.3023 24.8369 22.2369L15.0759 39.0084C14.528 39.9498 14.5271 41.1127 15.0735 42.0549L20.5744 51.5404L14.6638 61.508C13.8096 62.9485 14.2849 64.8087 15.7254 65.6629C17.1659 66.5171 19.0261 66.0418 19.8802 64.6013L24.0605 57.5518L33.0166 72.9955C33.5573 73.9279 34.5523 74.5032 35.6301 74.5066C36.7079 74.51 37.7065 73.9411 38.2531 73.0121L45.3945 60.8763L52.3925 72.991C52.9307 73.9226 53.9221 74.4993 54.9979 74.5065C56.0737 74.5137 57.0728 73.9504 57.6234 73.0261L66.8738 57.4974L71.0614 64.5955C71.9124 66.0379 73.7715 66.5173 75.2139 65.6663C76.6563 64.8154 77.1357 62.9562 76.2848 61.5138L70.4115 51.5586L76.1407 41.941C76.7124 40.9812 76.7101 39.7848 76.1347 38.8273L66.2301 22.3449C65.6793 21.4283 64.6864 20.8696 63.617 20.8745C62.5476 20.8794 61.5599 21.4472 61.0175 22.3689L57.109 29.011L48.156 13.8356ZM27.4478 29.8074L30.4153 34.9447L24.1187 45.5633L21.2036 40.5364L27.4478 29.8074ZM33.8945 40.9677L27.6048 51.5746L35.6589 65.4628L41.9088 54.8418L33.8945 40.9677ZM37.4422 34.9848L45.4431 48.8357L53.5928 34.9862L45.5377 21.3328L37.4422 34.9848ZM55.0585 65.4816L48.9289 54.8701L57.1157 40.9576L63.3613 51.5437L55.0585 65.4816ZM66.899 45.6049L60.6319 34.9823L63.6583 29.8394L70.0019 40.3959L66.899 45.6049Z" fill="#D14200"/>
</svg>
