<svg width="91" height="91" viewBox="0 0 91 91" fill="none" xmlns="http://www.w3.org/2000/svg">
<path fill-rule="evenodd" clip-rule="evenodd" d="M45.0299 90.8811C69.8992 90.8811 90.0598 70.7205 90.0598 45.8512C90.0598 20.9819 69.8992 0.821289 45.0299 0.821289C20.1606 0.821289 0 20.9819 0 45.8512C0 70.7205 20.1606 90.8811 45.0299 90.8811ZM47.5618 13.8356C47.0171 12.9124 46.0254 12.3453 44.9535 12.3441C43.8815 12.3429 42.8886 12.9078 42.3419 13.8298L33.3688 28.9618L29.4892 22.2455C28.9483 21.3091 27.9497 20.7316 26.8684 20.7299C25.7871 20.7281 24.7866 21.3023 24.2427 22.2369L14.4816 39.0084C13.9338 39.9498 13.9329 41.1127 14.4793 42.0549L19.9801 51.5404L14.0695 61.508C13.2154 62.9485 13.6906 64.8087 15.1311 65.6629C16.5716 66.5171 18.4318 66.0418 19.286 64.6013L23.4662 57.5518L32.4224 72.9955C32.9631 73.9279 33.958 74.5032 35.0359 74.5066C36.1137 74.51 37.1123 73.9411 37.6589 73.0121L44.8003 60.8763L51.7983 72.991C52.3364 73.9226 53.3279 74.4993 54.4037 74.5065C55.4795 74.5137 56.4786 73.9504 57.0292 73.0261L66.2795 57.4974L70.4672 64.5955C71.3181 66.0379 73.1773 66.5173 74.6197 65.6663C76.062 64.8154 76.5415 62.9562 75.6905 61.5138L69.8172 51.5586L75.5464 41.941C76.1181 40.9812 76.1158 39.7848 75.5404 38.8273L65.6358 22.3449C65.085 21.4283 64.0921 20.8696 63.0227 20.8745C61.9534 20.8794 60.9656 21.4472 60.4233 22.3689L56.5148 29.011L47.5618 13.8356ZM26.8536 29.8074L29.8211 34.9447L23.5245 45.5633L20.6093 40.5364L26.8536 29.8074ZM33.3003 40.9677L27.0106 51.5746L35.0646 65.4628L41.3145 54.8418L33.3003 40.9677ZM36.848 34.9848L44.8489 48.8357L52.9986 34.9862L44.9434 21.3328L36.848 34.9848ZM54.4643 65.4816L48.3346 54.8701L56.5215 40.9576L62.767 51.5437L54.4643 65.4816ZM66.3047 45.6049L60.0377 34.9823L63.064 29.8394L69.4077 40.3959L66.3047 45.6049Z" fill="#D14200"/>
</svg>
